<svg width="24" height="24" viewBox="0 0 24 24" fill="none" xmlns="http://www.w3.org/2000/svg">
<g clip-path="url(#clip0_3528_1273)">
<path fill-rule="evenodd" clip-rule="evenodd" d="M13.4143 6.34313C15.3669 8.29575 15.3669 11.4616 13.4143 13.4142C11.4617 15.3668 8.29583 15.3668 6.34321 13.4142C4.39059 11.4616 4.39059 8.29575 6.34321 6.34313C8.29583 4.39051 11.4617 4.39051 13.4143 6.34313ZM15.484 14.0732C17.5412 11.3312 17.3227 7.42311 14.8285 4.92891C12.0948 2.19524 7.66267 2.19524 4.929 4.92891C2.19533 7.66258 2.19533 12.0947 4.929 14.8284C7.42319 17.3226 11.3313 17.5411 14.0732 15.4839C14.0886 15.5015 14.1046 15.5187 14.1214 15.5355L17.6569 19.0711C18.0474 19.4616 18.6806 19.4616 19.0711 19.0711C19.4617 18.6805 19.4617 18.0474 19.0711 17.6568L15.5356 14.1213C15.5188 14.1045 15.5016 14.0885 15.484 14.0732Z" fill="#EAEAEA"/>
</g>
<defs>
<clipPath id="clip0_3528_1273">
<rect width="24" height="24" fill="white"/>
</clipPath>
</defs>
</svg>
