<svg width="29" height="28" viewBox="0 0 29 28" fill="none" xmlns="http://www.w3.org/2000/svg">
<path d="M8.27776 6.31936C8.38 6.42022 8.46112 6.54 8.51646 6.67184C8.5718 6.80368 8.60029 6.94501 8.60029 7.08773C8.60029 7.23045 8.5718 7.37177 8.51646 7.50362C8.46112 7.63546 8.38 7.75524 8.27776 7.8561C6.62755 9.48604 5.7005 11.6965 5.7005 14.0014C5.7005 16.3063 6.62755 18.5168 8.27776 20.1468C8.37986 20.2477 8.46084 20.3674 8.51607 20.4992C8.5713 20.6311 8.5997 20.7723 8.59965 20.915C8.5996 21.0576 8.5711 21.1989 8.51577 21.3306C8.46045 21.4624 8.37938 21.5821 8.27721 21.683C8.17503 21.7838 8.05374 21.8638 7.92027 21.9183C7.7868 21.9728 7.64376 22.0009 7.49931 22.0008C7.35486 22.0008 7.21184 21.9726 7.07841 21.918C6.94498 21.8634 6.82375 21.7833 6.72164 21.6824C2.42612 17.4404 2.42612 10.5614 6.72164 6.31936C6.82378 6.21838 6.94507 6.13828 7.07857 6.08362C7.21208 6.02897 7.35518 6.00084 7.4997 6.00084C7.64422 6.00084 7.78732 6.02897 7.92083 6.08362C8.05433 6.13828 8.17562 6.21838 8.27776 6.31936ZM22.2784 6.31936C26.5739 10.5625 26.5739 17.4404 22.2784 21.6824C22.0709 21.8802 21.7932 21.9897 21.5048 21.9872C21.2165 21.9848 20.9406 21.8705 20.7367 21.6692C20.5328 21.4678 20.4172 21.1954 20.4147 20.9107C20.4122 20.6259 20.523 20.3516 20.7233 20.1468C22.3736 18.5168 23.3006 16.3063 23.3006 14.0014C23.3006 11.6965 22.3736 9.48604 20.7233 7.8561C20.517 7.65246 20.401 7.37621 20.4009 7.08811C20.4008 6.80002 20.5166 6.52369 20.7228 6.3199C20.929 6.11612 21.2087 6.00158 21.5005 6.00147C21.7922 6.00137 22.072 6.11572 22.2784 6.31936ZM11.5406 9.44062C11.7468 9.64428 11.8626 9.92047 11.8626 10.2085C11.8626 10.4964 11.7468 10.7726 11.5406 10.9763C11.1403 11.3716 10.8227 11.8409 10.606 12.3575C10.3894 12.874 10.2778 13.4277 10.2778 13.9868C10.2778 14.5459 10.3894 15.0995 10.606 15.616C10.8227 16.1326 11.1403 16.6019 11.5406 16.9973C11.6457 17.0974 11.7295 17.2173 11.7871 17.3498C11.8447 17.4823 11.8751 17.6248 11.8763 17.769C11.8776 17.9132 11.8498 18.0562 11.7945 18.1897C11.7392 18.3231 11.6575 18.4444 11.5543 18.5464C11.451 18.6483 11.3282 18.729 11.1931 18.7836C11.0579 18.8382 10.9131 18.8657 10.7671 18.8644C10.6211 18.8632 10.4768 18.8332 10.3426 18.7763C10.2084 18.7194 10.0871 18.6366 9.98563 18.5329C8.76475 17.3272 8.07886 15.6919 8.07886 13.9868C8.07886 12.2816 8.76475 10.6463 9.98563 9.44062C10.1919 9.23702 10.4715 9.12265 10.7631 9.12265C11.0547 9.12265 11.3344 9.23702 11.5406 9.44062ZM19.1936 9.44062C20.4145 10.6463 21.1004 12.2816 21.1004 13.9868C21.1004 15.6919 20.4145 17.3272 19.1936 18.5329C19.0915 18.6338 18.9703 18.7139 18.8369 18.7685C18.7034 18.8231 18.5604 18.8513 18.416 18.8513C18.2715 18.8514 18.1285 18.8233 17.995 18.7688C17.8615 18.7143 17.7402 18.6343 17.6381 18.5335C17.5359 18.4326 17.4548 18.3129 17.3995 18.1811C17.3442 18.0494 17.3157 17.9081 17.3156 17.7655C17.3156 17.6228 17.344 17.4816 17.3992 17.3497C17.4544 17.2179 17.5354 17.0982 17.6375 16.9973C18.0379 16.6019 18.3554 16.1326 18.5721 15.616C18.7888 15.0995 18.9003 14.5459 18.9003 13.9868C18.9003 13.4277 18.7888 12.874 18.5721 12.3575C18.3554 11.8409 18.0379 11.3716 17.6375 10.9763C17.4313 10.7725 17.3155 10.4962 17.3156 10.2081C17.3157 9.91997 17.4317 9.64372 17.6381 9.44008C17.8444 9.23644 18.1242 9.12209 18.416 9.1222C18.7077 9.1223 18.9874 9.23684 19.1936 9.44062ZM14.5891 12.4489C14.8057 12.4489 15.0202 12.4911 15.2203 12.5729C15.4205 12.6548 15.6023 12.7748 15.7555 12.9261C15.9087 13.0773 16.0302 13.2569 16.1131 13.4546C16.196 13.6522 16.2387 13.8641 16.2387 14.078C16.2387 14.2919 16.196 14.5038 16.1131 14.7014C16.0302 14.899 15.9087 15.0786 15.7555 15.2299C15.6023 15.3812 15.4205 15.5012 15.2203 15.583C15.0202 15.6649 14.8057 15.707 14.5891 15.707C14.1516 15.707 13.732 15.5354 13.4226 15.2299C13.1133 14.9244 12.9395 14.51 12.9395 14.078C12.9395 13.6459 13.1133 13.2316 13.4226 12.9261C13.732 12.6206 14.1516 12.4489 14.5891 12.4489Z" fill="#8D8D8D"/>
</svg>
