<svg width="24" height="25" viewBox="0 0 24 25" fill="none" xmlns="http://www.w3.org/2000/svg">
<path d="M1.76001 17.3333V20H4.48728C4.48728 18.5244 3.2691 17.3333 1.76001 17.3333ZM1.76001 13.7778V15.5556C4.2691 15.5556 6.30546 17.5467 6.30546 20H8.12365C8.12365 16.56 5.27819 13.7778 1.76001 13.7778ZM1.76001 10.2222V12C2.83446 12 3.89839 12.2069 4.89106 12.609C5.88372 13.011 6.78568 13.6003 7.54543 14.3431C8.30518 15.086 8.90785 15.9679 9.31902 16.9385C9.7302 17.9091 9.94183 18.9494 9.94183 20H11.76C11.76 14.5956 7.27819 10.2222 1.76001 10.2222ZM19.9418 4H3.57819C2.57819 4 1.76001 4.8 1.76001 5.77778V8.44444H3.57819V5.77778H19.9418V18.2222H13.5782V20H19.9418C20.9418 20 21.76 19.2 21.76 18.2222V5.77778C21.76 4.8 20.9418 4 19.9418 4Z" fill="#EAEAEA"/>
</svg>
