<svg width="25" height="25" viewBox="0 0 25 25" fill="none" xmlns="http://www.w3.org/2000/svg">
<path d="M14.2769 22.3027H10.525C10.2899 22.3028 10.0619 22.2248 9.87875 22.0819C9.69558 21.9389 9.56829 21.7395 9.51798 21.5167L9.09847 19.6327C8.53884 19.3948 8.00818 19.0973 7.51628 18.7457L5.62279 19.3307C5.39867 19.4001 5.15685 19.393 4.93747 19.3105C4.7181 19.2281 4.53438 19.0754 4.41682 18.8777L2.53674 15.7267C2.42042 15.5289 2.37675 15.2986 2.41289 15.0735C2.44903 14.8484 2.56283 14.6419 2.73568 14.4877L4.20449 13.1877C4.13769 12.5988 4.13769 12.0046 4.20449 11.4157L2.73568 10.1187C2.56258 9.96451 2.44863 9.75781 2.41248 9.53252C2.37634 9.30723 2.42015 9.0767 2.53674 8.87873L4.4127 5.72573C4.53026 5.52805 4.71398 5.37533 4.93335 5.29292C5.15272 5.21052 5.39455 5.2034 5.61867 5.27273L7.51215 5.85773C7.76365 5.67773 8.02546 5.50973 8.29552 5.35773C8.5563 5.21573 8.82429 5.08673 9.09847 4.97173L9.51901 3.08973C9.56908 2.86693 9.69613 2.66742 9.8791 2.52428C10.0621 2.38114 10.29 2.30297 10.525 2.30273H14.2769C14.512 2.30297 14.7399 2.38114 14.9229 2.52428C15.1058 2.66742 15.2329 2.86693 15.2829 3.08973L15.7076 4.97273C16.2669 5.21063 16.7972 5.50813 17.2888 5.85973L19.1833 5.27473C19.4073 5.20565 19.6489 5.2129 19.868 5.2953C20.0872 5.37769 20.2707 5.53026 20.3882 5.72773L22.2642 8.88073C22.5033 9.28773 22.4209 9.80273 22.0653 10.1197L20.5964 11.4197C20.6632 12.0086 20.6632 12.6028 20.5964 13.1917L22.0653 14.4917C22.4209 14.8097 22.5033 15.3237 22.2642 15.7307L20.3882 18.8837C20.2707 19.0814 20.087 19.2341 19.8676 19.3165C19.6482 19.399 19.4064 19.4061 19.1823 19.3367L17.2888 18.7517C16.7972 19.1031 16.2669 19.4002 15.7076 19.6377L15.2829 21.5167C15.2327 21.7394 15.1055 21.9386 14.9226 22.0816C14.7396 22.2245 14.5118 22.3025 14.2769 22.3027ZM7.88631 16.5317L8.73152 17.1317C8.92221 17.2677 9.12012 17.3927 9.32626 17.5067C9.52005 17.6157 9.71795 17.7137 9.92307 17.8027L10.8848 18.2117L11.3558 20.3027H13.4482L13.9193 18.2107L14.881 17.8017C15.3005 17.6217 15.6994 17.3987 16.0694 17.1357L16.9146 16.5357L19.0194 17.1857L20.0656 15.4277L18.4339 13.9847L18.5494 12.9727C18.6009 12.5297 18.6009 12.0827 18.5494 11.6407L18.4339 10.6287L20.0666 9.18273L19.0194 7.42373L16.9156 8.07373L16.0694 7.47373C15.6992 7.20943 15.3007 6.98447 14.881 6.80273L13.9193 6.39373L13.4482 4.30273H11.3558L10.8817 6.39473L9.92307 6.80273C9.50271 6.98134 9.10412 7.20471 8.73462 7.46873L7.88837 8.06873L5.78565 7.41873L4.73738 9.18273L6.36906 10.6237L6.25361 11.6367C6.20207 12.0797 6.20207 12.5267 6.25361 12.9687L6.36906 13.9807L4.73738 15.4237L5.78359 17.1817L7.88631 16.5317ZM12.3969 16.3027C11.3034 16.3027 10.2547 15.8813 9.48147 15.1312C8.70826 14.381 8.27387 13.3636 8.27387 12.3027C8.27387 11.2419 8.70826 10.2245 9.48147 9.47431C10.2547 8.72416 11.3034 8.30273 12.3969 8.30273C13.4903 8.30273 14.539 8.72416 15.3122 9.47431C16.0855 10.2245 16.5198 11.2419 16.5198 12.3027C16.5198 13.3636 16.0855 14.381 15.3122 15.1312C14.539 15.8813 13.4903 16.3027 12.3969 16.3027ZM12.3969 10.3027C11.9932 10.3031 11.5985 10.4185 11.2618 10.6345C10.9251 10.8506 10.6611 11.1578 10.5028 11.518C10.3444 11.8783 10.2985 12.2757 10.3708 12.661C10.4431 13.0463 10.6304 13.4025 10.9095 13.6855C11.1886 13.9685 11.5472 14.1657 11.9408 14.2527C12.3344 14.3398 12.7457 14.3128 13.1236 14.1751C13.5015 14.0374 13.8295 13.7951 14.0667 13.4783C14.304 13.1614 14.4402 12.784 14.4583 12.3927V12.7927V12.3027C14.4583 11.7723 14.2412 11.2636 13.8546 10.8885C13.4679 10.5134 12.9436 10.3027 12.3969 10.3027Z" fill="#EAEAEA"/>
</svg>
